<?xml version="1.0" standalone="no"?>
<!DOCTYPE svg PUBLIC "-//W3C//DTD SVG 20010904//EN"
 "http://www.w3.org/TR/2001/REC-SVG-20010904/DTD/svg10.dtd">
<svg version="1.0" xmlns="http://www.w3.org/2000/svg"
 width="72.000000pt" height="72.000000pt" viewBox="0 0 72.000000 72.000000"
 preserveAspectRatio="xMidYMid meet">

<g transform="translate(0.000000,72.000000) scale(0.100000,-0.100000)"
fill="#000000" stroke="none">
<path d="M385 481 c-50 -26 -99 -101 -70 -108 6 -2 10 0 10 5 1 4 9 22 19 40
22 43 81 70 139 65 91 -9 111 -55 52 -116 -19 -20 -35 -44 -35 -55 0 -15 -12
-20 -59 -28 -64 -11 -111 -1 -111 22 0 8 -4 14 -10 14 -15 0 -12 -6 13 -34 21
-22 29 -25 78 -20 87 7 94 10 97 32 2 12 21 39 43 60 44 44 50 76 19 113 -30
33 -128 39 -185 10z"/>
<path d="M188 453 c-20 -5 -74 -161 -60 -175 6 -6 14 3 20 21 9 26 16 31 42
31 25 0 33 -5 41 -29 7 -18 16 -28 24 -25 10 4 8 23 -12 87 -27 90 -30 95 -55
90z m16 -55 c10 -41 7 -58 -12 -58 -28 0 -31 8 -19 46 12 39 22 43 31 12z"/>
<path d="M305 340 c3 -5 8 -10 11 -10 2 0 4 5 4 10 0 6 -5 10 -11 10 -5 0 -7
-4 -4 -10z"/>
</g>
</svg>
